name Precision Landing13_filtered_grf.mot
datacolumns 37
datarows 12
range 0.623000 0.628500
endheader
time	1_ground_force_vx	1_ground_force_vy	1_ground_force_vz	1_ground_force_px	1_ground_force_py	1_ground_force_pz	1_ground_torque_x	1_ground_torque_y	1_ground_torque_z	2_ground_force_vx	2_ground_force_vy	2_ground_force_vz	2_ground_force_px	2_ground_force_py	2_ground_force_pz	2_ground_torque_x	2_ground_torque_y	2_ground_torque_z	3_ground_force_vx	3_ground_force_vy	3_ground_force_vz	3_ground_force_px	3_ground_force_py	3_ground_force_pz	3_ground_torque_x	3_ground_torque_y	3_ground_torque_z	4_ground_force_vx	4_ground_force_vy	4_ground_force_vz	4_ground_force_px	4_ground_force_py	4_ground_force_pz	4_ground_torque_x	4_ground_torque_y	4_ground_torque_z
            0.623000	           -0.000000	            0.000000	            0.000000	            0.123594	            0.000000	            0.385075	            0.000000	            0.000000	           -0.000000	            0.000000	            0.000000	            0.000000	           -0.155640	            0.000000	            0.290391	            0.000000	           -0.000000	            0.000000	            5.033809	            0.250144	           -0.707116	            0.352706	            1.255269	            1.892069	           -0.002001	           -0.000099	            0.000281	          -16.907435	            0.532238	           -3.184579	           -0.289507	            1.264813	            1.901947	            0.000355	           -0.000011	            0.000067
            0.623500	           -0.000000	            0.000000	            0.000000	            0.123594	            0.000000	            0.385075	            0.000000	            0.000000	           -0.000000	            0.000000	            0.000000	            0.000000	           -0.155640	            0.000000	            0.290391	            0.000000	           -0.000000	            0.000000	            5.047234	            0.261272	           -0.722023	            0.352708	            1.255269	            1.892061	           -0.002358	           -0.000122	            0.000337	          -16.941056	            0.526970	           -3.161130	           -0.289503	            1.264814	            1.901939	            0.000651	           -0.000020	            0.000121
            0.624000	           -0.000000	            0.000000	            0.000000	            0.123594	            0.000000	            0.385075	            0.000000	            0.000000	           -0.000000	            0.000000	            0.000000	            0.000000	           -0.155640	            0.000000	            0.290391	            0.000000	           -0.000000	            0.000000	            5.056569	            0.271049	           -0.739103	            0.352709	            1.255269	            1.892053	           -0.002761	           -0.000148	            0.000404	          -16.973715	            0.521710	           -3.138144	           -0.289500	            1.264814	            1.901932	            0.000917	           -0.000028	            0.000170
            0.624500	           -0.000000	            0.000000	            0.000000	            0.123594	            0.000000	            0.385075	            0.000000	            0.000000	           -0.000000	            0.000000	            0.000000	            0.000000	           -0.155640	            0.000000	            0.290391	            0.000000	           -0.000000	            0.000000	            5.061795	            0.279333	           -0.758178	            0.352710	            1.255269	            1.892045	           -0.003202	           -0.000177	            0.000480	          -17.005088	            0.516499	           -3.115830	           -0.289496	            1.264814	            1.901924	            0.001152	           -0.000035	            0.000211
            0.625000	           -0.000000	            0.000000	            0.000000	            0.123594	            0.000000	            0.385075	            0.000000	            0.000000	           -0.000000	            0.000000	            0.000000	            0.000000	           -0.155640	            0.000000	            0.290391	            0.000000	           -0.000000	            0.000000	            5.062928	            0.285999	           -0.779060	            0.352711	            1.255269	            1.892037	           -0.003677	           -0.000208	            0.000566	          -17.034853	            0.511378	           -3.094377	           -0.289492	            1.264814	            1.901916	            0.001355	           -0.000041	            0.000246
            0.625500	           -0.000000	            0.000000	            0.000000	            0.123594	            0.000000	            0.385075	            0.000000	            0.000000	           -0.000000	            0.000000	            0.000000	            0.000000	           -0.155640	            0.000000	            0.290391	            0.000000	           -0.000000	            0.000000	            5.059998	            0.290932	           -0.801711	            0.352715	            1.255269	            1.892029	           -0.004178	           -0.000240	            0.000662	          -17.062690	            0.506367	           -3.074016	           -0.289488	            1.264815	            1.901907	            0.001525	           -0.000045	            0.000275
            0.626000	           -0.000000	            0.000000	            0.000000	            0.123594	            0.000000	            0.385075	            0.000000	            0.000000	           -0.000000	            0.000000	            0.000000	            0.000000	           -0.155640	            0.000000	            0.290391	            0.000000	           -0.000000	            0.000000	            5.053116	            0.294045	           -0.825763	            0.352718	            1.255269	            1.892021	           -0.004701	           -0.000274	            0.000768	          -17.088308	            0.501537	           -3.054844	           -0.289485	            1.264815	            1.901897	            0.001663	           -0.000049	            0.000297
            0.626500	           -0.000000	            0.000000	            0.000000	            0.123594	            0.000000	            0.385075	            0.000000	            0.000000	           -0.000000	            0.000000	            0.000000	            0.000000	           -0.155640	            0.000000	            0.290391	            0.000000	           -0.000000	            0.000000	            5.042401	            0.295266	           -0.851002	            0.352722	            1.255270	            1.892012	           -0.005239	           -0.000307	            0.000884	          -17.111421	            0.496934	           -3.036990	           -0.289481	            1.264815	            1.901888	            0.001770	           -0.000051	            0.000314
            0.627000	           -0.000000	            0.000000	            0.000000	            0.123594	            0.000000	            0.385075	            0.000000	            0.000000	           -0.000000	            0.000000	            0.000000	            0.000000	           -0.155640	            0.000000	            0.290391	            0.000000	           -0.000000	            0.000000	            5.028007	            0.294540	           -0.877206	            0.352725	            1.255270	            1.892004	            0.005388	            0.007821	            0.067790	          -17.131767	            0.492606	           -3.020564	           -0.289477	            1.264816	            1.901878	            0.001846	           -0.000053	            0.000325
            0.627500	           -0.000000	            0.000000	            0.000000	            0.123594	            0.000000	            0.385075	            0.000000	            0.000000	           -0.000000	            0.000000	            0.000000	            0.000000	           -0.155640	            0.000000	            0.290391	            0.000000	           -0.000000	            0.000000	            5.010111	            0.291832	           -0.904148	            0.352729	            1.255270	            1.891995	            0.005189	            0.007063	            0.067391	          -17.149101	            0.488602	           -3.005645	           -0.289473	            1.264816	            1.901869	            0.001893	           -0.000054	            0.000332
            0.628000	           -0.000000	            0.000000	            0.000000	            0.123594	            0.000000	            0.385075	            0.000000	            0.000000	           -0.000000	            0.000000	            0.000000	            0.000000	           -0.155640	            0.000000	            0.290391	            0.000000	           -0.000000	            0.000000	            4.988885	            0.287114	           -0.931797	            0.352734	            1.255270	            1.891986	            0.005006	            0.006340	            0.066996	          -17.163212	            0.484943	           -2.992267	           -0.289470	            1.264816	            1.901857	            0.001912	           -0.000054	            0.000333
            0.628500	           -0.000000	            0.000000	            0.000000	            0.123594	            0.000000	            0.385075	            0.000000	            0.000000	           -0.000000	            0.000000	            0.000000	            0.000000	           -0.155640	            0.000000	            0.290391	            0.000000	           -0.000000	            0.000000	            4.964591	            0.280398	           -0.959716	            0.352740	            1.255270	            1.891977	            0.004839	            0.005661	            0.066605	          -17.173908	            0.481707	           -2.980479	           -0.289466	            1.264817	            1.901846	            0.001905	           -0.000053	            0.000331
